<svg xmlns="http://www.w3.org/2000/svg" version="1.1" xmlns:xlink="http://www.w3.org/1999/xlink" xmlns:svgjs="http://svgjs.com/svgjs" width="20" height="20" x="0" y="0" viewBox="0 0 512 512" style="enable-background:new 0 0 512 512" xml:space="preserve" class=""><g><path d="M334.858 312.336c-3.34-.612-6.435-.919-9.295-.919-5.995 0-10.93 1.363-14.81 4.085-3.882 2.726-5.823 6.266-5.823 10.623 0 3.952 1.497 7.185 4.495 9.703 2.993 2.522 6.808 3.779 11.44 3.779 3.54 0 6.978-.613 10.316-1.839 3.335-1.225 6.093-2.86 8.273-4.903 3.131-2.451 4.699-5.037 4.699-7.762V314.89c-2.86-1.088-5.959-1.94-9.295-2.554zM47.852 64.813c5.031 19.965 23.134 34.79 44.639 34.79h371.657v-34.79H47.852zM202.789 254.219l-17.364 51.274h34.32zM92.491 0C70.986 0 52.883 14.825 47.852 34.791h416.295V0H92.491z" fill="#ffffff" data-original="#000000" opacity="1" class=""></path><path d="M92.491 129.624c-16.234 0-31.283-5.129-43.648-13.829v316.382c0 44.015 35.809 79.823 79.822 79.823h334.822V129.624H92.491zm144.004 231.433-11.236-32.481h-45.145l-11.031 32.481h-34.319l52.909-145.039h30.233l52.909 145.039h-34.32zm139.525 1.328c-2.317.205-4.427.307-6.333.307-6.128 0-10.76-1.194-13.891-3.575-3.135-2.381-5.107-5.752-5.924-10.112l-.613-4.903c-4.769 6.128-10.454 10.827-17.058 14.095-6.607 3.268-13.585 4.903-20.939 4.903-5.311 0-10.25-.852-14.81-2.554-4.565-1.701-8.478-4.086-11.746-7.15-3.269-3.064-5.858-6.671-7.763-10.827-1.909-4.153-2.859-8.682-2.859-13.585 0-5.311 1.123-10.144 3.371-14.504 2.247-4.357 5.413-8.101 9.499-11.236 4.086-3.131 8.918-5.583 14.503-7.354 5.583-1.768 11.779-2.656 18.59-2.656 4.493 0 8.851.377 13.074 1.123 4.22.75 7.896 1.874 11.031 3.371v-4.902c0-12.391-7.151-18.59-21.45-18.59-5.857 0-11.44.99-16.751 2.962-5.311 1.976-10.897 4.938-16.751 8.886l-9.601-20.428c7.079-4.628 14.433-8.101 22.062-10.418 7.626-2.314 15.73-3.473 24.31-3.473 16.205 0 28.733 3.814 37.587 11.44 8.851 7.629 13.278 18.794 13.278 33.502v27.578c0 3.269.511 5.551 1.532 6.844 1.021 1.296 2.825 2.078 5.413 2.349v27.579h.001c-2.859.68-5.448 1.123-7.762 1.328z" fill="#ffffff" data-original="#000000" opacity="1" class=""></path></g></svg>