<svg width="32" height="32" viewBox="0 0 32 32" fill="none" xmlns="http://www.w3.org/2000/svg">
<path d="M23 19V13C23 12.7348 23.1054 12.4804 23.2929 12.2929C23.4804 12.1053 23.7348 12 24 12C24.2652 12 24.5196 12.1053 24.7071 12.2929C24.8946 12.4804 25 12.7348 25 13V19C25 19.2652 24.8946 19.5196 24.7071 19.7071C24.5196 19.8946 24.2652 20 24 20C23.7348 20 23.4804 19.8946 23.2929 19.7071C23.1054 19.5196 23 19.2652 23 19ZM28 9.99998C27.7348 9.99998 27.4804 10.1053 27.2929 10.2929C27.1054 10.4804 27 10.7348 27 11V21C27 21.2652 27.1054 21.5196 27.2929 21.7071C27.4804 21.8946 27.7348 22 28 22C28.2652 22 28.5196 21.8946 28.7071 21.7071C28.8946 21.5196 29 21.2652 29 21V11C29 10.7348 28.8946 10.4804 28.7071 10.2929C28.5196 10.1053 28.2652 9.99998 28 9.99998ZM6.74 4.32748C6.65218 4.22849 6.54559 4.14791 6.4264 4.09042C6.30721 4.03293 6.1778 3.99966 6.04566 3.99255C5.91352 3.98545 5.78128 4.00463 5.65661 4.04901C5.53194 4.09338 5.41732 4.16206 5.31939 4.25106C5.22146 4.34006 5.14216 4.44761 5.0861 4.56748C5.03004 4.68735 4.99833 4.81715 4.99281 4.94937C4.98728 5.08158 5.00806 5.21358 5.05392 5.33771C5.09979 5.46183 5.16983 5.57563 5.26 5.67248L9.19375 9.99998H4C3.46957 9.99998 2.96086 10.2107 2.58579 10.5858C2.21071 10.9608 2 11.4696 2 12V20C2 20.5304 2.21071 21.0391 2.58579 21.4142C2.96086 21.7893 3.46957 22 4 22H9.65625L18.3862 28.7887C18.534 28.9036 18.711 28.9747 18.8971 28.9939C19.0832 29.0132 19.271 28.9798 19.4391 28.8977C19.6072 28.8155 19.7489 28.6878 19.8481 28.5291C19.9472 28.3704 19.9999 28.1871 20 28V21.8862L25.26 27.6725C25.3478 27.7715 25.4544 27.8521 25.5736 27.9095C25.6928 27.967 25.8222 28.0003 25.9543 28.0074C26.0865 28.0145 26.2187 27.9953 26.3434 27.951C26.4681 27.9066 26.5827 27.8379 26.6806 27.7489C26.7785 27.6599 26.8578 27.5524 26.9139 27.4325C26.97 27.3126 27.0017 27.1828 27.0072 27.0506C27.0127 26.9184 26.9919 26.7864 26.9461 26.6623C26.9002 26.5381 26.8302 26.4243 26.74 26.3275L6.74 4.32748ZM18.26 14.0262C18.3958 14.1756 18.5735 14.2804 18.7699 14.3268C18.9664 14.3732 19.1722 14.3591 19.3605 14.2864C19.5488 14.2136 19.7106 14.0856 19.8247 13.9191C19.9389 13.7527 20 13.5556 20 13.3537V3.99998C19.9999 3.81286 19.9472 3.62954 19.8481 3.47085C19.7489 3.31216 19.6072 3.18447 19.4391 3.10231C19.271 3.02014 19.0832 2.98679 18.8971 3.00604C18.711 3.0253 18.534 3.09639 18.3862 3.21123L13.405 7.08623C13.2962 7.1709 13.2062 7.27714 13.1404 7.39827C13.0746 7.51941 13.0346 7.65283 13.0229 7.79017C13.0112 7.9275 13.0279 8.06577 13.0722 8.19631C13.1164 8.32685 13.1872 8.44684 13.28 8.54873L18.26 14.0262Z" fill="white"/>
</svg>
