<svg width="20" height="18" viewBox="0 0 20 18" fill="none" xmlns="http://www.w3.org/2000/svg">
<path d="M20 1V17C20 17.2652 19.8946 17.5196 19.7071 17.7071C19.5196 17.8946 19.2652 18 19 18C18.7348 18 18.4804 17.8946 18.2929 17.7071C18.1054 17.5196 18 17.2652 18 17V1C18 0.734784 18.1054 0.48043 18.2929 0.292893C18.4804 0.105357 18.7348 0 19 0C19.2652 0 19.5196 0.105357 19.7071 0.292893C19.8946 0.48043 20 0.734784 20 1ZM14.0837 7.3325L3.06 0.31375C2.76002 0.121961 2.41406 0.0142205 2.05823 0.0017786C1.7024 -0.0106633 1.34976 0.0726493 1.03712 0.243018C0.724476 0.413386 0.463306 0.664562 0.280876 0.970321C0.0984449 1.27608 0.00144371 1.62521 0 1.98125V16.0187C0.00081247 16.373 0.0967031 16.7205 0.277661 17.025C0.458619 17.3296 0.718009 17.5799 1.02875 17.75C1.34216 17.9221 1.69608 18.0068 2.05345 17.9951C2.41082 17.9835 2.75847 17.8759 3.06 17.6838L14.0837 10.665C14.3646 10.4867 14.5959 10.2404 14.7561 9.94893C14.9164 9.65742 15.0004 9.33015 15.0004 8.9975C15.0004 8.66485 14.9164 8.33758 14.7561 8.04608C14.5959 7.75457 14.3646 7.50826 14.0837 7.33V7.3325Z" fill="white"/>
</svg>
