<svg width="21" height="20" viewBox="0 0 21 20" fill="none" xmlns="http://www.w3.org/2000/svg">
<path d="M13.5791 0.325908C13.4529 0.26445 13.3121 0.239602 13.1726 0.254185C13.033 0.268769 12.9004 0.3222 12.7897 0.408408L6.24219 5.49997H2C1.60218 5.49997 1.22064 5.65801 0.93934 5.93931C0.658035 6.22061 0.5 6.60215 0.5 6.99997V13C0.5 13.3978 0.658035 13.7793 0.93934 14.0606C1.22064 14.3419 1.60218 14.5 2 14.5H6.24219L12.7897 19.5915C12.9005 19.6777 13.0332 19.731 13.1728 19.7454C13.3124 19.7599 13.4533 19.7349 13.5793 19.6732C13.7054 19.6116 13.8117 19.5158 13.8861 19.3968C13.9604 19.2778 13.9999 19.1403 14 19V0.999971C14 0.859465 13.9606 0.72178 13.8861 0.602604C13.8117 0.483428 13.7053 0.387555 13.5791 0.325908ZM12.5 17.4662L6.96031 13.1584C6.82897 13.0555 6.66686 12.9997 6.5 13H2V6.99997H6.5C6.66686 7.00024 6.82897 6.94444 6.96031 6.84153L12.5 2.53372V17.4662ZM17.75 7.74997V12.25C17.75 12.4489 17.671 12.6396 17.5303 12.7803C17.3897 12.921 17.1989 13 17 13C16.8011 13 16.6103 12.921 16.4697 12.7803C16.329 12.6396 16.25 12.4489 16.25 12.25V7.74997C16.25 7.55106 16.329 7.36029 16.4697 7.21964C16.6103 7.07899 16.8011 6.99997 17 6.99997C17.1989 6.99997 17.3897 7.07899 17.5303 7.21964C17.671 7.36029 17.75 7.55106 17.75 7.74997ZM20.75 6.24997V13.75C20.75 13.9489 20.671 14.1396 20.5303 14.2803C20.3897 14.421 20.1989 14.5 20 14.5C19.8011 14.5 19.6103 14.421 19.4697 14.2803C19.329 14.1396 19.25 13.9489 19.25 13.75V6.24997C19.25 6.05106 19.329 5.86029 19.4697 5.71964C19.6103 5.57899 19.8011 5.49997 20 5.49997C20.1989 5.49997 20.3897 5.57899 20.5303 5.71964C20.671 5.86029 20.75 6.05106 20.75 6.24997Z" fill="white"/>
</svg>
