<svg width="32" height="32" viewBox="0 0 32 32" fill="none" xmlns="http://www.w3.org/2000/svg">
<path d="M20 3.99998V28C19.9999 28.1871 19.9472 28.3704 19.8481 28.5291C19.7489 28.6878 19.6072 28.8155 19.4391 28.8977C19.271 28.9798 19.0832 29.0132 18.8971 28.9939C18.711 28.9747 18.534 28.9036 18.3862 28.7887L9.65625 22H4C3.46957 22 2.96086 21.7893 2.58579 21.4142C2.21071 21.0391 2 20.5304 2 20V12C2 11.4696 2.21071 10.9608 2.58579 10.5858C2.96086 10.2107 3.46957 9.99998 4 9.99998H9.65625L18.3862 3.21123C18.534 3.09639 18.711 3.0253 18.8971 3.00604C19.0832 2.98679 19.271 3.02014 19.4391 3.10231C19.6072 3.18447 19.7489 3.31216 19.8481 3.47085C19.9472 3.62954 19.9999 3.81286 20 3.99998ZM24 12C23.7348 12 23.4804 12.1053 23.2929 12.2929C23.1054 12.4804 23 12.7348 23 13V19C23 19.2652 23.1054 19.5196 23.2929 19.7071C23.4804 19.8946 23.7348 20 24 20C24.2652 20 24.5196 19.8946 24.7071 19.7071C24.8946 19.5196 25 19.2652 25 19V13C25 12.7348 24.8946 12.4804 24.7071 12.2929C24.5196 12.1053 24.2652 12 24 12ZM28 9.99998C27.7348 9.99998 27.4804 10.1053 27.2929 10.2929C27.1054 10.4804 27 10.7348 27 11V21C27 21.2652 27.1054 21.5196 27.2929 21.7071C27.4804 21.8946 27.7348 22 28 22C28.2652 22 28.5196 21.8946 28.7071 21.7071C28.8946 21.5196 29 21.2652 29 21V11C29 10.7348 28.8946 10.4804 28.7071 10.2929C28.5196 10.1053 28.2652 9.99998 28 9.99998Z" fill="white"/>
</svg>
