<svg xmlns="http://www.w3.org/2000/svg" version="1.1" xmlns:xlink="http://www.w3.org/1999/xlink" xmlns:svgjs="http://svgjs.com/svgjs" width="20" height="20" x="0" y="0" viewBox="0 0 100 100" style="enable-background:new 0 0 512 512" xml:space="preserve" class=""><g><path d="M35 33h50a3 3 0 0 0 0-6H35a3 3 0 0 0 0 6z" fill="#ffffff" data-original="#000000" class="" opacity="1"></path><circle cx="20" cy="30" r="5" fill="#ffffff" data-original="#000000" class="" opacity="1"></circle><path d="M85 47H35a3 3 0 0 0 0 6h50a3 3 0 0 0 0-6z" fill="#ffffff" data-original="#000000" class="" opacity="1"></path><circle cx="20" cy="50" r="5" fill="#ffffff" data-original="#000000" class="" opacity="1"></circle><path d="M85 67H35a3 3 0 0 0 0 6h50a3 3 0 0 0 0-6z" fill="#ffffff" data-original="#000000" class="" opacity="1"></path><circle cx="20" cy="70" r="5" fill="#ffffff" data-original="#000000" class="" opacity="1"></circle></g></svg>