<svg xmlns="http://www.w3.org/2000/svg" version="1.1" xmlns:xlink="http://www.w3.org/1999/xlink" xmlns:svgjs="http://svgjs.com/svgjs" width="10" height="30" x="0" y="0" viewBox="0 0 469.333 469.333" style="enable-background:new 0 0 512 512" xml:space="preserve" class=""><g><path d="M372.063 44.699c-4.813-3.469-11.469-2.385-14.896 2.375-3.458 4.771-2.396 11.438 2.375 14.896C414.938 102.095 448 166.657 448 234.668s-33.063 132.573-88.458 172.698c-4.771 3.458-5.833 10.125-2.375 14.896a10.658 10.658 0 0 0 8.646 4.406c2.167 0 4.354-.656 6.25-2.031 60.906-44.125 97.271-115.146 97.271-189.969S432.969 88.824 372.063 44.699z" style="" fill="#636262" data-original="#303c42" class="" opacity="1"></path><path d="M314.01 108.303c-4.948-3.125-11.563-1.635-14.708 3.354-3.135 4.979-1.635 11.563 3.354 14.708 37.573 23.646 60.01 64.135 60.01 108.302s-22.438 84.656-60.01 108.302c-4.99 3.146-6.49 9.729-3.354 14.708a10.66 10.66 0 0 0 9.042 4.99c1.938 0 3.906-.531 5.667-1.635C357.833 333.449 384 286.22 384 234.668s-26.167-98.781-69.99-126.365z" style="" fill="#636262" data-original="#303c42" class="" opacity="1"></path><path d="M272.75 183.449c-4.729-3.531-11.406-2.531-14.927 2.177-3.521 4.729-2.542 11.417 2.177 14.927 11.021 8.208 17.333 20.635 17.333 34.115S271.02 260.574 260 268.783c-4.719 3.51-5.698 10.198-2.177 14.927a10.634 10.634 0 0 0 8.563 4.292c2.208 0 4.448-.688 6.365-2.115 16.469-12.26 25.917-30.938 25.917-51.219s-9.449-38.958-25.918-51.219zM206.896 43.543a10.68 10.68 0 0 0-11.563 2.042L85.479 149.335H10.667A10.66 10.66 0 0 0 0 160.001v149.333a10.66 10.66 0 0 0 10.667 10.667H85.48l109.854 103.75a10.657 10.657 0 0 0 7.333 2.917 10.668 10.668 0 0 0 10.667-10.667V53.335a10.67 10.67 0 0 0-6.438-9.792z" style="" fill="#636262" data-original="#303c42" class="" opacity="1"></path><path d="m192 391.251-94.938-89.667a10.659 10.659 0 0 0-7.333-2.917H21.333v-128h68.396c2.729 0 5.354-1.042 7.333-2.917L192 78.085v313.166z" style="" fill="#636262" data-original="#636262" class=""></path><path d="M21.333 224.001v74.667h68.396c2.729 0 5.354 1.042 7.333 2.917L192 391.251v-167.25H21.333z" style="opacity:0.1;enable-background:new ;" fill="#636262" data-original="#636262" class=""></path><linearGradient id="a" x1="-66.04" x2="-45.66" y1="618.899" y2="609.396" gradientTransform="matrix(21.3333 0 0 -21.3333 1430.111 13315.223)" gradientUnits="userSpaceOnUse"><stop offset="0" style="stop-color:#FFFFFF;stop-opacity:0.2" stop-color=""></stop><stop offset="1" style="stop-color:#FFFFFF;stop-opacity:0" stop-color=""></stop></linearGradient><path d="M372.063 44.699c-4.813-3.469-11.469-2.385-14.896 2.375-3.458 4.771-2.396 11.438 2.375 14.896C414.938 102.095 448 166.657 448 234.668s-33.063 132.573-88.458 172.698c-4.771 3.458-5.833 10.125-2.375 14.896a10.658 10.658 0 0 0 8.646 4.406c2.167 0 4.354-.656 6.25-2.031 60.906-44.125 97.271-115.146 97.271-189.969S432.969 88.824 372.063 44.699zm-58.053 63.604c-4.948-3.125-11.563-1.635-14.708 3.354-3.135 4.979-1.635 11.563 3.354 14.708 37.573 23.646 60.01 64.135 60.01 108.302s-22.438 84.656-60.01 108.302c-4.99 3.146-6.49 9.729-3.354 14.708a10.66 10.66 0 0 0 9.042 4.99c1.938 0 3.906-.531 5.667-1.635C357.833 333.449 384 286.22 384 234.668s-26.167-98.781-69.99-126.365zm-41.26 75.146c-4.729-3.531-11.406-2.531-14.927 2.177-3.521 4.729-2.542 11.417 2.177 14.927 11.021 8.208 17.333 20.635 17.333 34.115S271.02 260.574 260 268.783c-4.719 3.51-5.698 10.198-2.177 14.927a10.634 10.634 0 0 0 8.563 4.292c2.208 0 4.448-.688 6.365-2.115 16.469-12.26 25.917-30.938 25.917-51.219s-9.449-38.958-25.918-51.219zM206.896 43.543a10.68 10.68 0 0 0-11.563 2.042L85.479 149.335H10.667A10.66 10.66 0 0 0 0 160.001v149.333a10.66 10.66 0 0 0 10.667 10.667H85.48l109.854 103.75a10.657 10.657 0 0 0 7.333 2.917 10.668 10.668 0 0 0 10.667-10.667V53.335a10.67 10.67 0 0 0-6.438-9.792z" style="fill:url(#a);" fill=""></path></g></svg>