<svg xmlns="http://www.w3.org/2000/svg" version="1.1" xmlns:xlink="http://www.w3.org/1999/xlink" xmlns:svgjs="http://svgjs.com/svgjs" width="20" height="20" x="0" y="0" viewBox="0 0 45.974 45.975" style="enable-background:new 0 0 512 512" xml:space="preserve" class=""><g><path d="M9.629 44.68a4.04 4.04 0 0 1-6.907-2.85V4.043a4.04 4.04 0 0 1 6.907-2.851l17.862 17.951a5.375 5.375 0 0 1 0 7.585L9.629 44.68zM38.252 45.975c-2.763 0-5-2.238-5-5V5c0-2.762 2.237-5 5-5a5 5 0 0 1 5 5v35.975a5 5 0 0 1-5 5z" fill="#ffffff" data-original="#000000" opacity="1" class=""></path></g></svg>