<svg width="32" height="32" viewBox="0 0 32 32" fill="none" xmlns="http://www.w3.org/2000/svg">
<path d="M13.9327 20.6667C14.4882 21.2223 15.1882 21.4836 16.0327 21.4507C16.8771 21.4178 17.4882 21.112 17.866 20.5334L25.3327 9.33337L14.1327 16.8C13.5549 17.2 13.2385 17.8054 13.1833 18.616C13.1282 19.4267 13.378 20.1103 13.9327 20.6667ZM6.79935 26.6667C6.31046 26.6667 5.86068 26.5609 5.45002 26.3494C5.03935 26.1378 4.71135 25.8214 4.46602 25.4C3.88824 24.3556 3.44379 23.272 3.13268 22.1494C2.82157 21.0267 2.66602 19.8658 2.66602 18.6667C2.66602 16.8223 3.01624 15.0889 3.71668 13.4667C4.41713 11.8445 5.3669 10.4334 6.56602 9.23337C7.76602 8.03337 9.17713 7.0836 10.7993 6.38404C12.4216 5.68449 14.1549 5.33426 15.9993 5.33337C17.8216 5.33337 19.5327 5.67782 21.1327 6.36671C22.7327 7.0556 24.1327 7.99471 25.3327 9.18404C26.5327 10.3725 27.4882 11.7614 28.1993 13.3507C28.9105 14.94 29.2771 16.6454 29.2993 18.4667C29.3216 19.6889 29.1825 20.8836 28.882 22.0507C28.5816 23.2178 28.1207 24.3343 27.4993 25.4C27.2549 25.8223 26.9269 26.1392 26.5153 26.3507C26.1038 26.5623 25.654 26.6676 25.166 26.6667H6.79935Z" fill="white"/>
</svg>
