<svg width="24" height="24" viewBox="0 0 24 24" fill="none" xmlns="http://www.w3.org/2000/svg">
<path d="M20.7746 5.4731C19.7906 4.49109 18.4576 3.93894 17.0674 3.93754C15.6772 3.93613 14.3431 4.48558 13.3571 5.4656L11.9996 6.72935L10.6421 5.4656C9.65683 4.48161 8.32105 3.9293 6.92859 3.93018C5.53614 3.93106 4.20106 4.48505 3.21707 5.47029C2.23307 6.45553 1.68076 7.7913 1.68164 9.18376C1.68252 10.5762 2.23652 11.9113 3.22175 12.8953L11.5993 21.3947C11.6516 21.4477 11.7139 21.4898 11.7826 21.5185C11.8513 21.5472 11.9251 21.562 11.9996 21.562C12.074 21.562 12.1478 21.5472 12.2165 21.5185C12.2852 21.4898 12.3476 21.4477 12.3999 21.3947L20.7746 12.899C21.2623 12.4115 21.6491 11.8327 21.9131 11.1956C22.1771 10.5585 22.3129 9.87567 22.3129 9.18607C22.3129 8.49647 22.1771 7.81363 21.9131 7.17655C21.6491 6.53947 21.2623 5.96063 20.7746 5.4731ZM19.9758 12.1059L11.9996 20.1984L4.0205 12.1031C3.25142 11.3286 2.82063 10.2809 2.82249 9.18945C2.82435 8.09798 3.25871 7.05175 4.03043 6.2799C4.80215 5.50806 5.84832 5.07353 6.93979 5.07149C8.03125 5.06945 9.07903 5.50008 9.85363 6.26904C9.85818 6.2739 9.8632 6.2783 9.86863 6.28216L11.6161 7.90966C11.7202 8.00667 11.8573 8.0606 11.9996 8.0606C12.1419 8.0606 12.2789 8.00667 12.383 7.90966L14.1305 6.28123C14.1359 6.27736 14.141 6.27296 14.1455 6.2681C14.5283 5.88306 14.9833 5.57736 15.4844 5.36855C15.9856 5.15974 16.5231 5.05191 17.066 5.05126C17.6089 5.05061 18.1466 5.15714 18.6483 5.36475C19.15 5.57236 19.6057 5.87696 19.9894 6.26108C20.3731 6.64521 20.6772 7.1013 20.8842 7.60319C21.0913 8.10509 21.1972 8.64293 21.1959 9.18585C21.1947 9.72878 21.0862 10.2661 20.8769 10.767C20.6675 11.268 20.3613 11.7226 19.9758 12.105V12.1059Z" fill="white"/>
</svg>
