<svg xmlns="http://www.w3.org/2000/svg" version="1.1" xmlns:xlink="http://www.w3.org/1999/xlink" xmlns:svgjs="http://svgjs.com/svgjs" width="17" height="17" x="0" y="0" viewBox="0 0 512.001 512" style="enable-background:new 0 0 512 512" xml:space="preserve" class=""><g><path d="m430.375 283.078 11.543-12.957 63.488-71.289a26.04 26.04 0 0 0-3.195-37.664c-11.406-8.473-27.43-6.668-36.664 4.133l-56.738 63.703a8.67 8.67 0 0 1-12.25.71l-51.844-46.175-32.403-28.852a8.68 8.68 0 0 0-12.253.711l-28.856 32.395-241.43 271.082c-9.664 10.422-9.605 26.547.13 36.898a26.033 26.033 0 0 0 37.785-1.129l236.62-265.734a8.67 8.67 0 0 1 5.981-2.894 8.676 8.676 0 0 1 6.273 2.18l51.844 46.175 12.965 11.543c14.316 12.746 36.254 11.477 49.004-2.836zM74.82 175.54c11.41 8.472 27.43 6.667 36.664-4.134l56.739-63.703a8.678 8.678 0 0 1 12.254-.71l58.324 51.945a8.68 8.68 0 0 0 12.254-.711l23.082-25.922a8.68 8.68 0 0 0-.711-12.254l-64.797-57.707-12.969-11.551c-14.312-12.746-36.254-11.477-49.004 2.836l-11.539 12.965-63.488 71.281a26.028 26.028 0 0 0-6.504 19.52 26.044 26.044 0 0 0 9.695 18.144zm0 0" fill="#ffffff" data-original="#000000" class="" opacity="1"></path><path d="M274.32 458.926c-9.664 10.422-9.605 26.547.13 36.898a26.036 26.036 0 0 0 19.14 7.535 26.039 26.039 0 0 0 18.633-8.714l63.535-71.274 11.539-12.953a34.712 34.712 0 0 0-2.836-49.016l-12.957-11.539-64.809-57.718a8.68 8.68 0 0 0-6.273-2.184 8.685 8.685 0 0 0-5.977 2.894l-23.086 25.922a8.68 8.68 0 0 0-2.183 6.274 8.702 8.702 0 0 0 2.894 5.98l58.325 51.938a8.681 8.681 0 0 1 2.89 5.98 8.666 8.666 0 0 1-2.187 6.274zM335.656 121.266c28.63 25.504 72.512 22.964 98.016-5.668 25.5-28.63 22.965-72.512-5.668-98.016-28.629-25.5-72.516-22.965-98.016 5.668a69.431 69.431 0 0 0-17.468 50.184 69.423 69.423 0 0 0 23.136 47.832zM8.68 234.305h69.422c4.793 0 8.68-3.883 8.68-8.676a8.68 8.68 0 0 0-8.68-8.68H8.68A8.68 8.68 0 0 0 0 225.63c0 4.793 3.887 8.676 8.68 8.676zM34.71 260.34a8.68 8.68 0 0 0 8.68 8.68h69.422a8.68 8.68 0 0 0 0-17.36H43.391a8.68 8.68 0 0 0-8.68 8.68zm0 0" fill="#ffffff" data-original="#000000" class="" opacity="1"></path></g></svg>