<svg xmlns="http://www.w3.org/2000/svg" version="1.1" xmlns:xlink="http://www.w3.org/1999/xlink" xmlns:svgjs="http://svgjs.com/svgjs" width="17" height="17" x="0" y="0" viewBox="0 0 24 24" style="enable-background:new 0 0 512 512" xml:space="preserve" class=""><g><path d="M21.25 0H2.75A2.752 2.752 0 0 0 0 2.75v18.5A2.752 2.752 0 0 0 2.75 24h18.5A2.752 2.752 0 0 0 24 21.25V2.75A2.752 2.752 0 0 0 21.25 0zM12 19a1 1 0 1 1 0-2 1 1 0 0 1 0 2zm1.604-6.587a1 1 0 0 0-.604.919V14a1 1 0 0 1-2 0v-.668c0-1.2.712-2.281 1.813-2.756 1.009-.435 1.687-1.554 1.687-2.326 0-1.378-1.122-2.5-2.5-2.5s-2.5 1.122-2.5 2.5a1 1 0 0 1-2 0c0-2.481 2.019-4.5 4.5-4.5s4.5 2.019 4.5 4.5c0 1.662-1.245 3.452-2.896 4.163z" fill="#ffffff" data-original="#000000" class="" opacity="1"></path></g></svg>