<?xml version="1.0" encoding="iso-8859-1"?>
<!-- Uploaded to: SVG Repo, www.svgrepo.com, Generator: SVG Repo Mixer Tools -->
<svg fill="#ffffff" height="23px" width="23px" version="1.1" id="Layer_1" xmlns="http://www.w3.org/2000/svg" xmlns:xlink="http://www.w3.org/1999/xlink" 
	 viewBox="0 0 460.644 460.644" xml:space="preserve">
<g>
	<g>
		<path d="M435.038,152.454c2.87,2.87,6.706,4.394,10.609,4.394c1.933,0,3.882-0.373,5.737-1.142
			c5.605-2.322,9.26-7.791,9.26-13.858V15.811c0-8.284-6.716-15-15-15H319.606c-6.067,0-11.536,3.654-13.858,9.26
			c-2.321,5.605-1.038,12.057,3.252,16.347l17.499,17.499H134.411l17.499-17.499c4.29-4.29,5.573-10.741,3.252-16.347
			c-2.322-5.605-7.792-9.26-13.858-9.26H15.266c-8.284,0-15,6.716-15,15v126.037c0,6.067,3.655,11.536,9.26,13.858
			c1.856,0.769,3.805,1.142,5.737,1.142c3.904,0,7.74-1.523,10.61-4.394l18.044-18.044v192.088l-18.31-18.31
			c-4.29-4.29-10.743-5.573-16.347-3.252C3.655,307.259,0,312.728,0,318.795v126.038c0,8.284,6.716,15,15,15h126.038
			c6.067,0,11.537-3.654,13.858-9.26c2.321-5.605,1.038-12.057-3.252-16.347l-17.5-17.5h192.089l-17.5,17.5
			c-4.29,4.29-5.573,10.741-3.252,16.347c2.322,5.605,7.791,9.26,13.858,9.26h126.038c8.284,0,15-6.716,15-15V318.795
			c0-6.067-3.654-11.536-9.26-13.858c-5.603-2.32-12.057-1.039-16.347,3.252l-18.044,18.044V134.145L435.038,152.454z
			 M30.266,105.635V30.811h74.825L30.266,105.635z M30,429.833v-74.825l74.825,74.825H30z M104.145,386.727l-30.228-30.228V104.411
			l30.495-30.495H356.5l30.229,30.229v252.088h-0.001l-30.494,30.494H104.145z M430.378,355.008v74.825h-74.825L430.378,355.008z
			 M355.819,30.811h74.825v74.824L355.819,30.811z"/>
	</g>
</g>
</svg>